<svg width="230" height="58" viewBox="0 0 230 58" fill="none" xmlns="http://www.w3.org/2000/svg">
<path d="M72.0341 46V11.0909H86.0114C88.5795 11.0909 90.7216 11.4716 92.4375 12.233C94.1534 12.9943 95.4432 14.0511 96.3068 15.4034C97.1705 16.7443 97.6023 18.2898 97.6023 20.0398C97.6023 21.4034 97.3295 22.6023 96.7841 23.6364C96.2386 24.6591 95.4886 25.5 94.5341 26.1591C93.5909 26.8068 92.5114 27.267 91.2955 27.5398V27.8807C92.625 27.9375 93.8693 28.3125 95.0284 29.0057C96.1989 29.6989 97.1477 30.6705 97.875 31.9205C98.6023 33.1591 98.9659 34.6364 98.9659 36.3523C98.9659 38.2045 98.5057 39.858 97.5852 41.3125C96.6761 42.7557 95.3295 43.8977 93.5455 44.7386C91.7614 45.5795 89.5625 46 86.9489 46H72.0341ZM79.4148 39.9659H85.4318C87.4886 39.9659 88.9886 39.5739 89.9318 38.7898C90.875 37.9943 91.3466 36.9375 91.3466 35.6193C91.3466 34.6534 91.1136 33.8011 90.6477 33.0625C90.1818 32.3239 89.517 31.7443 88.6534 31.3239C87.8011 30.9034 86.7841 30.6932 85.6023 30.6932H79.4148V39.9659ZM79.4148 25.6989H84.8864C85.8977 25.6989 86.7955 25.5227 87.5795 25.1705C88.375 24.8068 89 24.2955 89.4545 23.6364C89.9205 22.9773 90.1534 22.1875 90.1534 21.267C90.1534 20.0057 89.7045 18.9886 88.8068 18.2159C87.9205 17.4432 86.6591 17.0568 85.0227 17.0568H79.4148V25.6989ZM111.098 46.4943C109.428 46.4943 107.939 46.2045 106.632 45.625C105.325 45.0341 104.291 44.1648 103.53 43.017C102.78 41.858 102.405 40.4148 102.405 38.6875C102.405 37.233 102.672 36.0114 103.206 35.0227C103.74 34.0341 104.467 33.2386 105.388 32.6364C106.308 32.0341 107.354 31.5795 108.524 31.2727C109.706 30.9659 110.945 30.75 112.24 30.625C113.763 30.4659 114.99 30.3182 115.922 30.1818C116.854 30.0341 117.53 29.8182 117.95 29.5341C118.371 29.25 118.581 28.8295 118.581 28.2727V28.1705C118.581 27.0909 118.24 26.2557 117.558 25.6648C116.888 25.0739 115.933 24.7784 114.695 24.7784C113.388 24.7784 112.348 25.0682 111.575 25.6477C110.803 26.2159 110.291 26.9318 110.041 27.7955L103.325 27.25C103.666 25.6591 104.337 24.2841 105.337 23.125C106.337 21.9545 107.626 21.0568 109.206 20.4318C110.797 19.7955 112.638 19.4773 114.729 19.4773C116.183 19.4773 117.575 19.6477 118.905 19.9886C120.246 20.3295 121.433 20.858 122.467 21.5739C123.513 22.2898 124.337 23.2102 124.939 24.3352C125.541 25.4489 125.842 26.7841 125.842 28.3409V46H118.956V42.3693H118.751C118.331 43.1875 117.768 43.9091 117.064 44.5341C116.359 45.1477 115.513 45.6307 114.524 45.983C113.536 46.3239 112.393 46.4943 111.098 46.4943ZM113.178 41.483C114.246 41.483 115.189 41.2727 116.007 40.8523C116.825 40.4205 117.467 39.8409 117.933 39.1136C118.399 38.3864 118.632 37.5625 118.632 36.642V33.8636C118.405 34.0114 118.092 34.1477 117.695 34.2727C117.308 34.3864 116.871 34.4943 116.382 34.5966C115.893 34.6875 115.405 34.7727 114.916 34.8523C114.428 34.9205 113.984 34.983 113.587 35.0398C112.734 35.1648 111.99 35.3636 111.354 35.6364C110.717 35.9091 110.223 36.2784 109.871 36.7443C109.518 37.1989 109.342 37.767 109.342 38.4489C109.342 39.4375 109.7 40.1932 110.416 40.7159C111.143 41.2273 112.064 41.483 113.178 41.483ZM153.26 27.2841L146.612 27.6932C146.499 27.125 146.254 26.6136 145.879 26.1591C145.504 25.6932 145.01 25.3239 144.396 25.0511C143.794 24.767 143.072 24.625 142.232 24.625C141.107 24.625 140.158 24.8636 139.385 25.3409C138.612 25.8068 138.226 26.4318 138.226 27.2159C138.226 27.8409 138.476 28.3693 138.976 28.8011C139.476 29.233 140.334 29.5795 141.55 29.8409L146.288 30.7955C148.834 31.3182 150.732 32.1591 151.982 33.3182C153.232 34.4773 153.857 36 153.857 37.8864C153.857 39.6023 153.351 41.108 152.339 42.4034C151.339 43.6989 149.964 44.7102 148.214 45.4375C146.476 46.1534 144.47 46.5114 142.197 46.5114C138.732 46.5114 135.97 45.7898 133.913 44.3466C131.868 42.892 130.669 40.9148 130.317 38.4148L137.459 38.0398C137.675 39.0966 138.197 39.9034 139.027 40.4602C139.857 41.0057 140.919 41.2784 142.214 41.2784C143.487 41.2784 144.51 41.0341 145.283 40.5455C146.067 40.0455 146.464 39.4034 146.476 38.6193C146.464 37.9602 146.186 37.4205 145.641 37C145.095 36.5682 144.254 36.2386 143.118 36.0114L138.584 35.108C136.027 34.5966 134.124 33.7102 132.874 32.4489C131.635 31.1875 131.016 29.5795 131.016 27.625C131.016 25.9432 131.47 24.4943 132.379 23.2784C133.3 22.0625 134.589 21.125 136.249 20.4659C137.919 19.8068 139.874 19.4773 142.112 19.4773C145.419 19.4773 148.021 20.1761 149.919 21.5739C151.828 22.9716 152.942 24.875 153.26 27.2841ZM165.009 38.4659L165.026 29.7557H166.082L174.469 19.8182H182.804L171.537 32.9773H169.815L165.009 38.4659ZM158.429 46V11.0909H165.69V46H158.429ZM174.793 46L167.088 34.5966L171.929 29.4659L183.298 46H174.793ZM197.22 46.5114C194.527 46.5114 192.209 45.9659 190.266 44.875C188.334 43.7727 186.845 42.2159 185.8 40.2045C184.754 38.1818 184.232 35.7898 184.232 33.0284C184.232 30.3352 184.754 27.9716 185.8 25.9375C186.845 23.9034 188.317 22.3182 190.214 21.1818C192.124 20.0455 194.362 19.4773 196.93 19.4773C198.658 19.4773 200.266 19.7557 201.754 20.3125C203.254 20.858 204.561 21.6818 205.675 22.7841C206.8 23.8864 207.675 25.2727 208.3 26.9432C208.925 28.6023 209.237 30.5455 209.237 32.7727V34.767H187.129V30.267H202.402C202.402 29.2216 202.175 28.2955 201.72 27.4886C201.266 26.6818 200.635 26.0511 199.828 25.5966C199.033 25.1307 198.107 24.8977 197.05 24.8977C195.947 24.8977 194.97 25.1534 194.118 25.6648C193.277 26.1648 192.618 26.8409 192.141 27.6932C191.663 28.5341 191.419 29.4716 191.408 30.5057V34.7841C191.408 36.0795 191.646 37.1989 192.124 38.142C192.612 39.0852 193.3 39.8125 194.186 40.3239C195.072 40.8352 196.124 41.0909 197.339 41.0909C198.146 41.0909 198.885 40.9773 199.555 40.75C200.226 40.5227 200.8 40.1818 201.277 39.7273C201.754 39.2727 202.118 38.7159 202.368 38.0568L209.084 38.5C208.743 40.1136 208.044 41.5227 206.987 42.7273C205.942 43.9205 204.589 44.8523 202.93 45.5227C201.283 46.1818 199.379 46.5114 197.22 46.5114ZM227.902 19.8182V25.2727H212.135V19.8182H227.902ZM215.714 13.5455H222.976V37.9545C222.976 38.625 223.078 39.1477 223.283 39.5227C223.487 39.8864 223.771 40.142 224.135 40.2898C224.51 40.4375 224.942 40.5114 225.43 40.5114C225.771 40.5114 226.112 40.483 226.453 40.4261C226.794 40.358 227.055 40.3068 227.237 40.2727L228.379 45.6761C228.016 45.7898 227.504 45.9205 226.845 46.0682C226.186 46.2273 225.385 46.3239 224.442 46.358C222.692 46.4261 221.158 46.1932 219.839 45.6591C218.533 45.125 217.516 44.2955 216.788 43.1705C216.061 42.0455 215.703 40.625 215.714 38.9091V13.5455Z" fill="#2F2F2F"/>
<path d="M26.1818 22.375C25.9432 21.5455 25.608 20.8125 25.1761 20.1761C24.7443 19.5284 24.2159 18.983 23.5909 18.5398C22.9773 18.0852 22.2727 17.7386 21.4773 17.5C20.6932 17.2614 19.8239 17.142 18.8693 17.142C17.0852 17.142 15.517 17.5852 14.1648 18.4716C12.8239 19.358 11.7784 20.6477 11.0284 22.3409C10.2784 24.0227 9.90341 26.0795 9.90341 28.5114C9.90341 30.9432 10.2727 33.0114 11.0114 34.7159C11.75 36.4205 12.7955 37.7216 14.1477 38.6193C15.5 39.5057 17.0966 39.9489 18.9375 39.9489C20.608 39.9489 22.0341 39.6534 23.2159 39.0625C24.4091 38.4602 25.3182 37.6136 25.9432 36.5227C26.5795 35.4318 26.8977 34.142 26.8977 32.6534L28.3977 32.875H19.3977V27.3182H34.0057V31.7159C34.0057 34.7841 33.358 37.4205 32.0625 39.625C30.767 41.8182 28.983 43.5114 26.7102 44.7045C24.4375 45.8864 21.8352 46.4773 18.9034 46.4773C15.6307 46.4773 12.7557 45.7557 10.2784 44.3125C7.80114 42.858 5.86932 40.7955 4.48295 38.125C3.10795 35.4432 2.42045 32.2614 2.42045 28.5795C2.42045 25.75 2.82955 23.2273 3.64773 21.0114C4.47727 18.7841 5.63636 16.8977 7.125 15.3523C8.61364 13.8068 10.3466 12.6307 12.3239 11.8239C14.3011 11.017 16.4432 10.6136 18.75 10.6136C20.7273 10.6136 22.5682 10.9034 24.2727 11.483C25.9773 12.0511 27.4886 12.858 28.8068 13.9034C30.1364 14.9489 31.2216 16.1932 32.0625 17.6364C32.9034 19.0682 33.4432 20.6477 33.6818 22.375H26.1818ZM51.2429 46.5114C48.5952 46.5114 46.3054 45.9489 44.3736 44.8239C42.4531 43.6875 40.9702 42.108 39.9247 40.0852C38.8793 38.0511 38.3565 35.6932 38.3565 33.0114C38.3565 30.3068 38.8793 27.9432 39.9247 25.9205C40.9702 23.8864 42.4531 22.3068 44.3736 21.1818C46.3054 20.0455 48.5952 19.4773 51.2429 19.4773C53.8906 19.4773 56.1747 20.0455 58.0952 21.1818C60.027 22.3068 61.5156 23.8864 62.5611 25.9205C63.6065 27.9432 64.1293 30.3068 64.1293 33.0114C64.1293 35.6932 63.6065 38.0511 62.5611 40.0852C61.5156 42.108 60.027 43.6875 58.0952 44.8239C56.1747 45.9489 53.8906 46.5114 51.2429 46.5114ZM51.277 40.8864C52.4815 40.8864 53.4872 40.5455 54.294 39.8636C55.1009 39.1705 55.7088 38.2273 56.1179 37.0341C56.5384 35.8409 56.7486 34.483 56.7486 32.9602C56.7486 31.4375 56.5384 30.0795 56.1179 28.8864C55.7088 27.6932 55.1009 26.75 54.294 26.0568C53.4872 25.3636 52.4815 25.017 51.277 25.017C50.0611 25.017 49.0384 25.3636 48.2088 26.0568C47.3906 26.75 46.7713 27.6932 46.3509 28.8864C45.9418 30.0795 45.7372 31.4375 45.7372 32.9602C45.7372 34.483 45.9418 35.8409 46.3509 37.0341C46.7713 38.2273 47.3906 39.1705 48.2088 39.8636C49.0384 40.5455 50.0611 40.8864 51.277 40.8864Z" fill="#C24017"/>
</svg>
