<svg width="615" height="549" viewBox="0 0 615 549" fill="none" xmlns="http://www.w3.org/2000/svg">
<path fill-rule="evenodd" clip-rule="evenodd" d="M269.149 92.4783C264.751 93.4657 255.413 97.1101 248.398 100.576C241.382 104.041 231.393 110.022 226.198 113.865C221.004 117.709 214.508 123.294 211.762 126.278C209.016 129.261 204.519 135.002 201.768 139.037C199.017 143.071 195.572 148.707 194.113 151.56C192.653 154.413 189.503 162.119 187.11 168.687C184.719 175.254 181.382 182.968 179.696 185.828C177.916 188.848 172.638 194.072 167.112 198.284C161.879 202.275 155.303 207.938 152.5 210.87C149.698 213.8 146.041 218.404 144.374 221.099C142.707 223.794 140.088 229.306 138.554 233.349C136.562 238.594 135.585 244.381 135.14 253.562C134.789 260.797 135.119 269.62 135.896 273.729C136.654 277.747 138.851 284.362 140.777 288.429C142.704 292.496 146.867 298.67 150.029 302.147C153.192 305.625 158.954 310.564 162.832 313.123C166.711 315.682 173.498 319.176 177.914 320.887C185.943 324 185.943 324 303.027 324C420.11 324 420.11 324 430.066 320.645C435.543 318.799 443.585 315.003 447.936 312.212C452.29 309.419 459.257 303.634 463.42 299.358C467.582 295.08 473.096 288.426 475.67 284.569C478.246 280.713 481.91 273.066 483.815 267.576C486.252 260.547 487.622 253.38 488.444 243.345C489.205 234.069 489.184 226.418 488.384 221.422C487.697 217.129 485.033 209.432 482.338 203.949C479.688 198.558 474.713 190.472 471.283 185.978C467.848 181.477 461.19 174.966 456.463 171.482C451.742 168.004 443.794 163.056 438.8 160.487C433.808 157.92 426.45 155.153 422.45 154.338C418.452 153.525 412.256 152.009 408.682 150.97C404.731 149.823 399.978 147.153 396.56 144.163C393.468 141.458 387.974 135.551 384.352 131.038C380.728 126.524 373.441 119.598 368.156 115.645C362.871 111.691 354.375 106.087 349.275 103.19C344.173 100.293 335.564 96.4817 330.141 94.7226C321.348 91.8695 317.946 91.4775 298.713 91.1027C282.901 90.794 275.012 91.1614 269.149 92.4783Z" fill="#C7C7C7"/>
<path d="M220.5 352C217.5 350 213 351 210.5 352.5C208 354 206.5 355 205 357C203.5 359 164.5 425.5 163 428C161.5 430.5 160 433.609 160 437.5C160 441.39 160.155 444.347 163 447C165.668 449.488 168.389 450.015 172 449.5C175.647 448.98 178.5 446.5 180 444.5C181.5 442.5 222.5 371.5 224 367C225.5 362.5 225.5 361 225 358.5C224.5 356 223.5 354 220.5 352Z" fill="#36C8EB"/>
<path d="M283 352C280 350 275.5 351 273 352.5C270.5 354 269 355 267.5 357C266 359 227 425.5 225.5 428C224 430.5 222.5 433.609 222.5 437.5C222.5 441.39 222.655 444.347 225.5 447C228.168 449.488 230.889 450.015 234.5 449.5C238.147 448.98 241 446.5 242.5 444.5C244 442.5 285 371.5 286.5 367C288 362.5 288 361 287.5 358.5C287 356 286 354 283 352Z" fill="#36C8EB"/>
<path d="M345.356 353C342.356 351 337.856 352 335.356 353.5C332.856 355 331.356 356 329.856 358C328.356 360 289.356 426.5 287.856 429C286.356 431.5 284.856 434.609 284.856 438.5C284.856 442.39 285.011 445.347 287.856 448C290.524 450.488 293.245 451.015 296.856 450.5C300.504 449.98 303.356 447.5 304.856 445.5C306.356 443.5 347.356 372.5 348.856 368C350.356 363.5 350.356 362 349.856 359.5C349.356 357 348.356 355 345.356 353Z" fill="#36C8EB"/>
<path d="M407.5 352.5C404.5 350.5 400 351.5 397.5 353C395 354.5 393.5 355.5 392 357.5C390.5 359.5 351.5 426 350 428.5C348.5 431 347 434.109 347 438C347 441.89 347.155 444.847 350 447.5C352.668 449.988 355.389 450.515 359 450C362.647 449.48 365.5 447 367 445C368.5 443 409.5 372 411 367.5C412.5 363 412.5 361.5 412 359C411.5 356.5 410.5 354.5 407.5 352.5Z" fill="#36C8EB"/>
</svg>
