<svg width="615" height="549" viewBox="0 0 615 549" fill="none" xmlns="http://www.w3.org/2000/svg">
<path fill-rule="evenodd" clip-rule="evenodd" d="M300.448 118.25C297.097 119.95 295.396 121.715 293.486 125.473C291.166 130.038 290.959 131.518 290.959 143.5C290.959 155.482 291.166 156.962 293.486 161.527C295.396 165.285 297.097 167.05 300.448 168.75C302.887 169.987 306.042 171 307.459 171C308.876 171 312.031 169.987 314.47 168.75C317.821 167.05 319.522 165.285 321.432 161.527C323.752 156.962 323.959 155.482 323.959 143.5C323.959 131.518 323.752 130.038 321.432 125.473C319.522 121.715 317.821 119.95 314.47 118.25C312.031 117.012 308.876 116 307.459 116C306.042 116 302.887 117.012 300.448 118.25ZM198.58 158.71C196.722 159.625 194.361 161.753 193.334 163.437C192.199 165.299 191.465 168.379 191.463 171.29C191.46 174.208 192.294 177.725 193.595 180.29C194.77 182.605 199.608 188.495 204.345 193.378C209.893 199.096 214.738 203.096 217.959 204.618C220.709 205.917 223.859 206.975 224.959 206.968C226.059 206.962 228.807 206.117 231.065 205.091C234.181 203.677 235.717 202.099 237.435 198.549C239.034 195.247 239.535 192.854 239.139 190.414C238.83 188.513 237.569 184.937 236.336 182.468C235.103 179.999 230.964 174.582 227.139 170.431C223.315 166.28 217.884 161.564 215.072 159.951C211.731 158.035 208.573 157.023 205.959 157.032C203.759 157.04 200.439 157.795 198.58 158.71ZM400.959 159.399C397.97 160.822 393.089 164.74 388.825 169.14C384.902 173.188 380.326 178.429 378.657 180.787C376.988 183.146 375.322 186.849 374.956 189.017C374.589 191.191 374.787 194.463 375.398 196.314C376.007 198.16 377.824 200.933 379.435 202.477C381.588 204.54 383.664 205.409 387.263 205.755C390.811 206.096 393.423 205.667 396.745 204.198C399.334 203.052 405.038 198.609 409.854 193.985C415.116 188.934 419.352 183.85 420.919 180.704C422.316 177.901 423.459 174.103 423.459 172.264C423.459 170.425 422.533 167.104 421.4 164.885C419.943 162.028 418.118 160.294 415.15 158.947C412.845 157.9 409.834 157.038 408.459 157.032C407.084 157.025 403.709 158.09 400.959 159.399ZM297.959 196.63C296.309 196.886 292.484 197.793 289.459 198.644C286.434 199.496 281.282 201.318 278.011 202.693C274.739 204.068 269.564 206.768 266.511 208.693C263.457 210.619 258.106 214.963 254.62 218.347C251.133 221.731 246.582 226.975 244.507 230C242.431 233.025 239.363 238.216 237.69 241.535C236.016 244.855 233.604 250.93 232.33 255.035C230.499 260.931 230.012 264.812 230.012 273.5C230.012 282.188 230.499 286.069 232.33 291.965C233.604 296.07 236.016 302.145 237.69 305.465C239.363 308.784 242.431 313.975 244.507 317C246.582 320.025 251.133 325.269 254.62 328.653C258.106 332.037 263.457 336.381 266.511 338.307C269.564 340.232 274.739 342.932 278.011 344.307C281.282 345.682 286.659 347.621 289.959 348.617C294.249 349.911 299.237 350.427 307.459 350.427C315.681 350.427 320.669 349.911 324.959 348.617C328.259 347.621 333.659 345.673 336.959 344.287C340.259 342.902 345.884 339.849 349.459 337.503C353.034 335.157 358.728 330.372 362.112 326.869C365.496 323.366 369.84 318.002 371.766 314.948C373.691 311.895 376.473 306.531 377.947 303.027C379.422 299.524 381.49 293.288 382.544 289.169C383.664 284.787 384.459 278.286 384.459 273.5C384.459 268.659 383.648 262.091 382.472 257.41C381.379 253.059 378.231 244.927 375.476 239.337C371.608 231.489 368.746 227.345 362.914 221.146C358.761 216.731 352.519 211.323 349.045 209.128C345.57 206.934 340.079 204.028 336.843 202.672C333.607 201.316 328.484 199.467 325.459 198.564C322.434 197.66 315.684 196.751 310.459 196.543C305.234 196.334 299.609 196.374 297.959 196.63ZM162.316 258.519C159.762 259.333 156.313 261.268 154.653 262.819C152.992 264.37 151.153 267.423 150.566 269.601C149.808 272.419 149.811 274.693 150.579 277.474C151.173 279.625 153.014 282.65 154.669 284.196C156.325 285.743 160.156 287.728 163.184 288.608C167.205 289.777 171.695 290.113 179.85 289.854C189.425 289.55 191.715 289.138 195.955 286.956C198.896 285.443 201.687 283.062 202.845 281.079C203.945 279.195 204.792 275.898 204.792 273.5C204.792 271.102 203.945 267.805 202.845 265.921C201.687 263.939 198.895 261.556 195.957 260.044C191.577 257.789 189.651 257.474 178.988 257.27C170.568 257.109 165.566 257.483 162.316 258.519ZM423.048 258.069C420.897 258.601 417.658 259.95 415.849 261.068C414.04 262.186 411.637 264.594 410.509 266.418C409.36 268.278 408.459 271.449 408.459 273.636C408.459 276.133 409.345 278.84 410.922 281.161C412.325 283.225 415.447 285.801 418.172 287.143C422.511 289.279 424.272 289.5 436.983 289.5C450.043 289.5 451.346 289.325 455.952 286.956C458.897 285.442 461.686 283.064 462.845 281.079C463.945 279.195 464.792 275.898 464.792 273.5C464.792 271.102 463.945 267.805 462.845 265.921C461.687 263.939 458.895 261.556 455.957 260.044C451.562 257.781 449.688 257.478 438.988 257.302C432.372 257.192 425.199 257.538 423.048 258.069ZM215.405 343.83C212.96 345.387 207.584 350.104 203.459 354.313C199.334 358.522 194.946 363.844 193.709 366.14C192.214 368.914 191.46 372.024 191.463 375.407C191.465 378.624 192.158 381.634 193.345 383.58C194.378 385.274 196.807 387.412 198.742 388.33C200.678 389.249 203.993 389.996 206.11 389.991C208.524 389.985 211.865 388.888 215.072 387.049C217.884 385.436 223.315 380.72 227.139 376.569C230.964 372.418 235.151 366.905 236.443 364.318C237.781 361.639 238.792 357.819 238.792 355.444C238.792 352.905 237.939 349.895 236.61 347.744C235.41 345.802 232.904 343.49 231.042 342.606C229.18 341.723 225.9 341 223.754 341C221.183 341 218.333 341.966 215.405 343.83ZM385.373 341.911C383.95 342.367 381.626 343.5 380.207 344.429C378.789 345.359 376.889 347.968 375.984 350.228C374.893 352.957 374.556 355.612 374.981 358.131C375.334 360.218 376.943 363.749 378.558 365.978C380.172 368.207 384.672 373.376 388.556 377.466C392.764 381.895 397.687 385.931 400.735 387.45C403.549 388.853 407.018 390 408.443 390C409.869 390 413.01 388.988 415.423 387.75C418.149 386.352 420.502 384.18 421.635 382.016C422.638 380.099 423.459 376.754 423.459 374.581C423.459 372.409 422.542 368.737 421.421 366.422C420.3 364.106 415.463 358.44 410.671 353.829C405.879 349.218 400.249 344.638 398.158 343.652C396.067 342.665 392.917 341.683 391.158 341.47C389.399 341.257 386.795 341.455 385.373 341.911ZM300.448 378.25C297.095 379.951 295.396 381.714 293.486 385.476C291.128 390.12 290.959 391.422 290.959 404.976C290.959 418.012 291.184 419.92 293.151 423.597C294.357 425.851 296.552 428.486 298.028 429.453C299.505 430.421 302.093 431.608 303.781 432.092C305.651 432.629 308.314 432.578 310.601 431.962C312.665 431.406 315.742 429.563 317.439 427.867C319.135 426.17 321.274 423.143 322.191 421.141C323.475 418.336 323.87 414.396 323.908 403.976C323.955 391.438 323.775 390.09 321.432 385.476C319.522 381.714 317.823 379.951 314.47 378.25C312.031 377.012 308.876 376 307.459 376C306.042 376 302.887 377.012 300.448 378.25Z" fill="#FAD631"/>
</svg>
