<svg width="615" height="549" viewBox="0 0 615 549" fill="none" xmlns="http://www.w3.org/2000/svg">
<path fill-rule="evenodd" clip-rule="evenodd" d="M315.738 107.453C311.453 108.423 302.352 112.005 295.515 115.411C288.677 118.817 278.942 124.695 273.879 128.472C268.818 132.25 262.486 137.739 259.81 140.672C257.134 143.604 252.751 149.247 250.07 153.213C247.39 157.178 244.032 162.716 242.61 165.52C241.187 168.324 238.117 175.898 235.786 182.353C233.455 188.807 230.203 196.389 228.56 199.2C226.825 202.168 221.681 207.303 216.296 211.442C211.196 215.365 204.787 220.931 202.056 223.812C199.324 226.692 195.76 231.217 194.135 233.865C192.511 236.514 189.959 241.932 188.464 245.905C186.523 251.061 185.57 256.748 185.137 265.771C184.794 272.882 185.116 281.554 185.873 285.592C186.612 289.541 188.753 296.043 190.63 300.04C192.508 304.037 196.565 310.105 199.647 313.522C202.729 316.94 208.345 321.795 212.125 324.31C215.905 326.825 222.519 330.259 226.823 331.941C234.648 335 234.648 335 348.755 335C462.862 335 462.862 335 472.564 331.702C477.902 329.888 485.739 326.158 489.98 323.414C494.223 320.669 501.013 314.984 505.07 310.781C509.126 306.576 514.5 300.036 517.009 296.246C519.52 292.456 523.091 284.941 524.946 279.544C527.322 272.636 528.657 265.593 529.458 255.73C530.2 246.613 530.18 239.093 529.4 234.183C528.73 229.963 526.134 222.399 523.507 217.01C520.925 211.712 516.076 203.764 512.733 199.347C509.386 194.924 502.897 188.524 498.29 185.1C493.69 181.682 485.943 176.819 481.077 174.295C476.211 171.771 469.04 169.051 465.142 168.251C461.246 167.451 455.207 165.962 451.724 164.941C447.874 163.813 443.241 161.189 439.91 158.25C436.897 155.592 431.542 149.786 428.012 145.351C424.481 140.914 417.379 134.107 412.228 130.222C407.078 126.336 398.797 120.828 393.827 117.981C388.855 115.133 380.464 111.388 375.179 109.659C366.611 106.855 363.294 106.469 344.551 106.101C329.14 105.797 321.452 106.159 315.738 107.453Z" fill="#C7C7C7"/>
<path d="M260 366.5C260 366.5 254.882 367.976 253 370.5C251.524 372.48 250.855 374.034 251 376.5C251.123 378.599 251.775 379.79 253 381.5C254.892 384.142 260 386 260 386H457C457 386 463.112 384.399 465.5 381.5L465.561 381.426C466.916 379.781 467.852 378.646 468 376.5C468.175 373.968 467.121 372.453 465.5 370.5C463.157 367.677 457 366.5 457 366.5H260Z" fill="#C7C7C7"/>
<path d="M260 416.5C260 416.5 254.882 417.976 253 420.5C251.524 422.48 250.855 424.034 251 426.5C251.123 428.599 251.775 429.79 253 431.5C254.892 434.142 260 436 260 436H457C457 436 463.112 434.399 465.5 431.5L465.561 431.426C466.916 429.781 467.852 428.646 468 426.5C468.175 423.968 467.121 422.453 465.5 420.5C463.157 417.677 457 416.5 457 416.5H260Z" fill="#C7C7C7"/>
</svg>
