<svg width="615" height="549" viewBox="0 0 615 549" fill="none" xmlns="http://www.w3.org/2000/svg">
<path fill-rule="evenodd" clip-rule="evenodd" d="M265.738 96.4656C261.453 97.4445 252.352 101.058 245.515 104.493C238.677 107.929 228.942 113.858 223.879 117.668C218.818 121.479 212.486 127.016 209.81 129.975C207.134 132.932 202.751 138.625 200.07 142.625C197.39 146.624 194.032 152.211 192.61 155.04C191.187 157.868 188.117 165.509 185.786 172.02C183.455 178.531 180.203 186.178 178.56 189.014C176.825 192.008 171.681 197.188 166.296 201.363C161.196 205.32 154.787 210.935 152.056 213.841C149.324 216.746 145.76 221.31 144.135 223.982C142.511 226.654 139.959 232.119 138.464 236.127C136.523 241.328 135.57 247.065 135.137 256.166C134.794 263.339 135.116 272.087 135.873 276.161C136.612 280.144 138.753 286.702 140.63 290.735C142.508 294.767 146.565 300.888 149.647 304.335C152.729 307.783 158.345 312.679 162.125 315.216C165.905 317.754 172.519 321.217 176.823 322.914C184.648 326 184.648 326 298.755 326C412.862 326 412.862 326 422.564 322.673C427.902 320.843 435.739 317.081 439.98 314.313C444.223 311.544 451.013 305.809 455.07 301.569C459.126 297.328 464.5 290.731 467.009 286.908C469.52 283.084 473.091 275.504 474.946 270.06C477.322 263.091 478.657 255.987 479.458 246.037C480.2 236.841 480.18 229.255 479.4 224.303C478.73 220.046 476.134 212.415 473.507 206.979C470.925 201.635 466.076 193.618 462.733 189.162C459.386 184.7 452.897 178.245 448.29 174.791C443.69 171.343 435.943 166.438 431.077 163.891C426.211 161.345 419.04 158.602 415.142 157.794C411.246 156.988 405.207 155.485 401.724 154.456C397.874 153.318 393.241 150.671 389.91 147.707C386.897 145.025 381.542 139.169 378.012 134.694C374.481 130.219 367.379 123.352 362.228 119.433C357.078 115.514 348.797 109.958 343.827 107.085C338.855 104.213 330.464 100.435 325.179 98.6906C316.611 95.862 313.294 95.4734 294.551 95.1018C279.14 94.7957 271.452 95.1601 265.738 96.4656Z" fill="#C7C7C7"/>
<path d="M232.5 365.5C232 367 215 395.5 212 398C209 400.5 207.295 401.044 204.5 401C201.895 400.959 200.05 401.108 198 399.5C195.8 397.774 195.093 396.732 194.5 394C193.92 391.328 195.5 387 196 385.5C196.5 384 213 357 215 355C217 353 219 352.5 220.5 352C222 351.5 225.237 351.041 228 352.5C230.73 353.941 231.67 356.026 232.5 359C233.183 361.445 233 364 232.5 365.5Z" fill="#36C8EB"/>
<path d="M279.5 407.5C279 409 262 437.5 259 440C256 442.5 254.295 443.044 251.5 443C248.895 442.959 247.05 443.108 245 441.5C242.801 439.774 242.093 438.732 241.5 436C240.92 433.329 242.5 429 243 427.5C243.5 426 260 399 262 397C264 395 266 394.5 267.5 394C269 393.5 272.237 393.041 275 394.5C277.73 395.941 278.67 398.026 279.5 401C280.183 403.445 280 406 279.5 407.5Z" fill="#36C8EB"/>
<path d="M352.5 366C352 367.5 335 396 332 398.5C329 401 327.295 401.544 324.5 401.5C321.895 401.459 320.05 401.608 318 400C315.8 398.274 315.093 397.232 314.5 394.5C313.92 391.829 315.5 387.5 316 386C316.5 384.5 333 357.5 335 355.5C337 353.5 339 353 340.5 352.5C342 352 345.237 351.541 348 353C350.73 354.441 351.67 356.526 352.5 359.5C353.183 361.945 353 364.5 352.5 366Z" fill="#36C8EB"/>
<path d="M399.5 408C399 409.5 382 438 379 440.5C376 443 374.295 443.544 371.5 443.5C368.895 443.459 367.05 443.608 365 442C362.8 440.274 362.093 439.232 361.5 436.5C360.92 433.829 362.5 429.5 363 428C363.5 426.5 380 399.5 382 397.5C384 395.5 386 395 387.5 394.5C389 394 392.237 393.541 395 395C397.73 396.441 398.67 398.526 399.5 401.5C400.183 403.945 400 406.5 399.5 408Z" fill="#36C8EB"/>
</svg>
