<svg width="615" height="549" viewBox="0 0 615 549" fill="none" xmlns="http://www.w3.org/2000/svg">
<path d="M168.988 323.348C129.488 319.848 114.621 268.713 132.488 235.348C134.354 231.862 135.546 229.958 137.988 226.848C140.121 224.131 141.49 222.734 143.988 220.348C146.392 218.051 150.488 214.848 150.488 214.848C150.488 214.848 153.463 212.605 155.488 211.348C157.566 210.057 159.354 209.02 161.988 207.848C164.64 206.667 168.988 205.348 168.988 205.348L175.488 203.303C175.488 203.303 173.988 198.348 175.488 191.348C176.988 184.348 179.988 177.848 179.988 177.848C179.988 177.848 185.488 165.848 195.988 157.348C206.488 148.848 206.184 149.092 214.488 145.348C222.707 141.641 226.988 140.348 237.488 139.348C247.988 138.348 253.358 139.552 262.988 142.348C271.88 144.93 277.13 146.726 284.488 152.348C292.315 158.329 300.488 171.848 300.488 171.848C300.488 171.848 317.807 165.214 328.988 166.848C338.248 168.201 343.624 170.573 350.988 176.348C356.654 180.791 363.488 191.348 363.488 191.348C358.464 191.017 349.36 190.723 340.488 193.848C331.571 196.989 323.354 201.386 317.488 207.848C312.779 213.034 309.488 220.848 309.488 220.848C309.488 220.848 303.628 219.949 296.988 219.848C291.346 219.762 284.141 220.428 280.488 220.848C271.078 221.93 257.988 228.348 257.988 228.348C257.988 228.348 249.082 232.127 241.488 239.348C235.128 245.395 231.487 249.536 227.488 257.348C224.298 263.578 222.988 274.348 222.988 274.348C222.988 274.348 207.805 276.316 199.488 280.848C193.034 284.365 187.829 287.817 182.988 293.348C179.606 297.211 177.119 300.806 174.988 304.848C173.122 308.386 170.988 314.348 170.988 314.348L168.988 323.348Z" fill="#C7C7C7"/>
<path d="M248.5 267C243.618 274.511 240.5 288.5 240.5 288.5C240.5 288.5 228.528 289.654 221.5 292.5C211.039 296.737 205.577 301.208 198.5 310C190.992 319.329 187.212 326.087 186 338C185.103 346.819 189 360.5 189 360.5C189 360.5 194.94 376.852 202.5 384.5C210.914 393.012 229.5 399 229.5 399H441.5C441.5 399 459.29 394.321 468.5 387.5C476.501 381.575 480.808 377.281 485.5 368.5C491.402 357.455 492.273 349.499 491.5 337C490.915 327.546 489.424 322.121 485.5 313.5C480.873 303.334 477.301 297.377 468.5 290.5C459.528 283.49 441.5 279.5 441.5 279.5C441.5 279.5 435.739 255.059 426.5 242.5C420.363 234.158 416.248 229.542 407.5 224C395.65 216.493 387.027 213.888 373 214C359.347 214.109 351.327 217.18 339.5 224C329.077 230.011 316.5 244.5 316.5 244.5C316.5 244.5 293.959 240.436 280.5 244.5C265.876 248.916 256.826 254.191 248.5 267Z" fill="#C7C7C7"/>
</svg>
