<svg width="615" height="549" viewBox="0 0 615 549" fill="none" xmlns="http://www.w3.org/2000/svg">
<path fill-rule="evenodd" clip-rule="evenodd" d="M261.991 141.618C256.911 142.699 246.121 146.687 238.016 150.48C229.91 154.273 218.369 160.818 212.367 165.024C206.366 169.231 198.861 175.343 195.688 178.609C192.516 181.873 187.32 188.157 184.142 192.573C180.963 196.988 176.983 203.155 175.297 206.278C173.61 209.4 169.97 217.834 167.207 225.022C164.444 232.209 160.588 240.651 158.64 243.782C156.584 247.087 150.485 252.805 144.102 257.414C138.056 261.782 130.458 267.98 127.219 271.188C123.981 274.395 119.757 279.433 117.83 282.383C115.905 285.332 112.879 291.365 111.106 295.79C108.805 301.53 107.676 307.864 107.162 317.911C106.756 325.829 107.138 335.486 108.035 339.982C108.91 344.38 111.449 351.62 113.675 356.071C115.901 360.522 120.711 367.279 124.364 371.084C128.018 374.89 134.675 380.295 139.156 383.096C143.638 385.897 151.479 389.72 156.581 391.593C165.858 395 165.858 395 301.132 395C436.407 395 436.407 395 447.909 391.328C454.237 389.307 463.529 385.154 468.557 382.099C473.586 379.042 481.635 372.711 486.445 368.031C491.254 363.349 497.625 356.067 500.599 351.846C503.576 347.626 507.809 339.257 510.009 333.248C512.825 325.555 514.407 317.712 515.357 306.73C516.237 296.578 516.213 288.204 515.289 282.737C514.494 278.038 511.417 269.614 508.303 263.613C505.242 257.714 499.493 248.864 495.53 243.945C491.562 239.02 483.87 231.894 478.407 228.081C472.954 224.275 463.771 218.86 458.001 216.049C452.232 213.238 443.732 210.21 439.111 209.318C434.492 208.428 427.332 206.77 423.203 205.633C418.639 204.377 413.147 201.455 409.198 198.183C405.625 195.222 399.278 188.758 395.093 183.819C390.906 178.878 382.486 171.298 376.381 166.972C370.275 162.645 360.458 156.512 354.566 153.341C348.672 150.17 338.725 145.999 332.459 144.074C322.301 140.952 318.369 140.523 296.149 140.112C277.88 139.774 268.765 140.177 261.991 141.618Z" fill="#C7C7C7"/>
<path fill-rule="evenodd" clip-rule="evenodd" d="M261.991 141.618C256.911 142.699 246.121 146.687 238.016 150.48C229.91 154.273 218.369 160.818 212.367 165.024C206.366 169.231 198.861 175.343 195.688 178.609C192.516 181.873 187.32 188.157 184.142 192.573C180.963 196.988 176.983 203.155 175.297 206.278C173.61 209.4 169.97 217.834 167.207 225.022C164.444 232.209 160.588 240.651 158.64 243.782C156.584 247.087 150.485 252.805 144.102 257.414C138.056 261.782 130.458 267.98 127.219 271.188C123.981 274.395 119.757 279.433 117.83 282.383C115.905 285.332 112.879 291.365 111.106 295.79C108.805 301.53 107.676 307.864 107.162 317.911C106.756 325.829 107.138 335.486 108.035 339.982C108.91 344.38 111.449 351.62 113.675 356.071C115.901 360.522 120.711 367.279 124.364 371.084C128.018 374.89 134.675 380.295 139.156 383.096C143.638 385.897 151.479 389.72 156.581 391.593C165.858 395 165.858 395 301.132 395C436.407 395 436.407 395 447.909 391.328C454.237 389.307 463.529 385.154 468.557 382.099C473.586 379.042 481.635 372.711 486.445 368.031C491.254 363.349 497.625 356.067 500.599 351.846C503.576 347.626 507.809 339.257 510.009 333.248C512.825 325.555 514.407 317.712 515.357 306.73C516.237 296.578 516.213 288.204 515.289 282.737C514.494 278.038 511.417 269.614 508.303 263.613C505.242 257.714 499.493 248.864 495.53 243.945C491.562 239.02 483.87 231.894 478.407 228.081C472.954 224.275 463.771 218.86 458.001 216.049C452.232 213.238 443.732 210.21 439.111 209.318C434.492 208.428 427.332 206.77 423.203 205.633C418.639 204.377 413.147 201.455 409.198 198.183C405.625 195.222 399.278 188.758 395.093 183.819C390.906 178.878 382.486 171.298 376.381 166.972C370.275 162.645 360.458 156.512 354.566 153.341C348.672 150.17 338.725 145.999 332.459 144.074C322.301 140.952 318.369 140.523 296.149 140.112C277.88 139.774 268.765 140.177 261.991 141.618Z" fill="#C7C7C7"/>
<g filter="url(#filter0_d_101_2)">
<path d="M398.4 402.74C394.76 402.74 391.68 401.83 389.16 400.01C386.64 398.05 385.38 394.9 385.38 390.56C385.38 388.32 385.8 385.59 386.64 382.37C387.62 379.01 388.95 375.51 390.63 371.87C392.31 368.09 394.41 364.38 396.93 360.74C399.45 356.96 402.39 353.46 405.75 350.24C408.27 347.72 410.37 345.41 412.05 343.31C413.87 341.21 415.27 339.25 416.25 337.43C417.23 335.47 417.93 333.58 418.35 331.76C418.77 329.8 418.98 327.63 418.98 325.25C418.98 319.51 417.37 315.66 414.15 313.7C410.93 311.6 407.08 310.62 402.6 310.76C398.12 310.9 394.13 311.81 390.63 313.49C387.13 315.17 385.38 317.83 385.38 321.47C385.38 325.11 383.77 327.84 380.55 329.66C377.33 331.48 374.04 332.39 370.68 332.39C366.48 332.25 363.47 331.27 361.65 329.45C359.83 327.63 358.92 324.97 358.92 321.47C358.92 316.57 360.04 312.09 362.28 308.03C364.66 303.83 367.81 300.26 371.73 297.32C375.79 294.38 380.48 292.07 385.8 290.39C391.26 288.57 397.07 287.59 403.23 287.45C409.25 287.31 414.85 288.08 420.03 289.76C425.21 291.3 429.62 293.75 433.26 297.11C437.04 300.47 439.91 304.6 441.87 309.5C443.97 314.4 444.95 320.07 444.81 326.51C444.67 332.11 443.55 337.43 441.45 342.47C439.49 347.37 435.5 352.69 429.48 358.43C425.42 362.35 422.2 365.78 419.82 368.72C417.44 371.52 415.62 374.11 414.36 376.49C413.1 378.73 412.26 380.97 411.84 383.21C411.56 385.45 411.42 387.9 411.42 390.56C411.42 394.62 410.16 397.7 407.64 399.8C405.12 401.76 402.04 402.74 398.4 402.74ZM398.4 448.1C402.46 448.1 405.82 446.77 408.48 444.11C411.28 441.31 412.68 437.88 412.68 433.82C412.68 429.76 411.28 426.4 408.48 423.74C405.82 420.94 402.46 419.54 398.4 419.54C394.34 419.54 390.91 420.94 388.11 423.74C385.45 426.4 384.12 429.76 384.12 433.82C384.12 437.88 385.45 441.31 388.11 444.11C390.91 446.77 394.34 448.1 398.4 448.1Z" fill="#C24017"/>
</g>
<defs>
<filter id="filter0_d_101_2" x="354.92" y="287.24" width="94.1001" height="168.86" filterUnits="userSpaceOnUse" color-interpolation-filters="sRGB">
<feFlood flood-opacity="0" result="BackgroundImageFix"/>
<feColorMatrix in="SourceAlpha" type="matrix" values="0 0 0 0 0 0 0 0 0 0 0 0 0 0 0 0 0 0 127 0" result="hardAlpha"/>
<feOffset dy="4"/>
<feGaussianBlur stdDeviation="2"/>
<feComposite in2="hardAlpha" operator="out"/>
<feColorMatrix type="matrix" values="0 0 0 0 0 0 0 0 0 0 0 0 0 0 0 0 0 0 0.25 0"/>
<feBlend mode="normal" in2="BackgroundImageFix" result="effect1_dropShadow_101_2"/>
<feBlend mode="normal" in="SourceGraphic" in2="effect1_dropShadow_101_2" result="shape"/>
</filter>
</defs>
</svg>
