<svg width="615" height="549" viewBox="0 0 615 549" fill="none" xmlns="http://www.w3.org/2000/svg">
<path fill-rule="evenodd" clip-rule="evenodd" d="M207.847 212.207C204.279 213.013 196.702 215.988 191.01 218.817C185.317 221.646 177.212 226.528 172.997 229.665C168.783 232.803 163.512 237.362 161.284 239.798C159.056 242.233 155.407 246.92 153.175 250.214C150.943 253.507 148.148 258.107 146.964 260.436C145.779 262.765 143.223 269.056 141.282 274.417C139.342 279.778 136.634 286.075 135.266 288.41C133.822 290.875 129.539 295.14 125.056 298.578C120.81 301.836 115.474 306.459 113.2 308.852C110.926 311.244 107.959 315.002 106.606 317.202C105.254 319.402 103.129 323.902 101.884 327.202C100.268 331.484 99.4747 336.208 99.1137 343.702C98.8287 349.608 99.0967 356.811 99.7267 360.165C100.342 363.445 102.125 368.845 103.688 372.165C105.251 375.485 108.629 380.525 111.195 383.363C113.761 386.202 118.436 390.234 121.583 392.323C124.73 394.412 130.237 397.264 133.82 398.661C140.335 401.202 140.335 401.202 235.335 401.202C330.335 401.202 330.335 401.202 338.413 398.463C342.857 396.956 349.382 393.858 352.913 391.579C356.445 389.299 362.098 384.577 365.476 381.086C368.853 377.594 373.327 372.162 375.416 369.014C377.506 365.866 380.479 359.624 382.024 355.142C384.002 349.404 385.113 343.554 385.78 335.362C386.398 327.79 386.381 321.544 385.732 317.466C385.174 313.961 383.013 307.678 380.826 303.202C378.676 298.802 374.639 292.201 371.856 288.532C369.069 284.858 363.667 279.543 359.831 276.699C356.001 273.86 349.552 269.821 345.5 267.724C341.449 265.628 335.479 263.369 332.234 262.704C328.99 262.04 323.962 260.803 321.062 259.955C317.857 259.018 314 256.839 311.227 254.398C308.718 252.19 304.26 247.368 301.321 243.684C298.381 239.999 292.468 234.345 288.18 231.118C283.892 227.891 276.998 223.316 272.86 220.951C268.721 218.586 261.735 215.475 257.335 214.039C250.201 211.71 247.44 211.39 231.835 211.084C219.005 210.832 212.604 211.132 207.847 212.207Z" fill="#C7C7C7"/>
<path fill-rule="evenodd" clip-rule="evenodd" d="M359.382 116.75C356.031 118.45 354.33 120.215 352.42 123.973C350.1 128.538 351 129.518 351 141.5C351 153.482 350.1 155.462 352.42 160.027C354.33 163.785 356.031 165.55 359.382 167.25C361.821 168.487 364.976 169.5 366.393 169.5C367.81 169.5 370.965 168.487 373.404 167.25C376.5 164.048 376.09 164.758 378 161C380.32 156.435 379.5 153.482 379.5 141.5C379.5 129.518 380.32 127.065 378 122.5C376.09 118.742 376 119 373.404 116.75C370.965 115.512 367.81 114.5 366.393 114.5C364.976 114.5 361.821 115.512 359.382 116.75ZM263.617 153.678C261.759 154.593 259.398 156.721 258.371 158.405C257.236 160.267 256.502 163.347 256.5 166.258C256.497 169.176 257.331 172.693 258.632 175.258C259.807 177.573 264.645 183.463 269.382 188.346C274.93 194.064 279.775 198.064 282.996 199.586C285.746 200.885 288.896 201.943 289.996 201.936C291.096 201.93 293.844 201.085 296.102 200.059C299.218 198.645 300.754 197.067 302.472 193.517C304.071 190.215 304.572 187.822 304.176 185.382C303.867 183.481 302.606 179.905 301.373 177.436C300.14 174.967 296.001 169.55 292.176 165.399C288.352 161.248 282.921 156.532 280.109 154.919C276.768 153.003 273.61 151.991 270.996 152C268.796 152.008 265.476 152.763 263.617 153.678ZM453.5 154.367C450.511 155.79 445.63 159.708 441.366 164.108C437.443 168.156 432.867 173.397 431.198 175.755C429.529 178.114 427.863 181.817 427.497 183.985C427.13 186.159 427.328 189.431 427.939 191.282C428.548 193.128 430.365 195.901 431.976 197.445C434.129 199.508 436.205 200.377 439.804 200.723C443.352 201.064 445.964 200.635 449.286 199.166C451.875 198.02 457.579 193.577 462.395 188.953C467.657 183.902 471.893 178.818 473.46 175.672C474.857 172.869 476 169.071 476 167.232C476 165.393 475.074 162.072 473.941 159.853C472.484 156.996 470.659 155.262 467.691 153.915C465.386 152.868 462.375 152.006 461 152C459.625 151.993 456.25 153.058 453.5 154.367ZM472.089 246.267C469.938 246.799 466.699 248.148 464.89 249.266C463.081 250.384 460.678 252.792 459.55 254.616C458.401 256.476 457.5 259.647 457.5 261.834C457.5 264.331 458.386 267.038 459.963 269.359C461.366 271.423 464.488 273.999 467.213 275.341C471.552 277.477 473.313 277.698 486.024 277.698C499.084 277.698 500.387 277.523 504.993 275.154C507.938 273.64 510.727 271.262 511.886 269.277C512.986 267.393 513.833 264.096 513.833 261.698C513.833 259.3 512.986 256.003 511.886 254.119C510.728 252.137 507.936 249.754 504.998 248.242C500.603 245.979 498.729 245.676 488.029 245.5C481.413 245.39 474.24 245.736 472.089 246.267Z" fill="#FAD631"/>
<path d="M432.354 324.959C433.773 324.03 436.097 322.897 437.52 322.441C438.942 321.985 441.546 321.787 443.305 322C445.064 322.213 448.214 323.195 450.305 324.182C452.396 325.168 458.026 329.748 462.818 334.359C467.61 338.97 472.447 344.636 473.568 346.952C474.689 349.267 475.606 352.939 475.606 355.111C475.606 357.284 474.785 360.629 473.782 362.546C472.649 364.71 470.296 366.882 467.57 368.28C465.157 369.518 462.016 370.53 460.59 370.53C459.165 370.53 455.696 369.383 452.882 367.98C449.834 366.461 444.911 362.425 440.703 357.996C436.819 353.906 432.319 348.737 430.705 346.508C429.09 344.279 427.481 340.748 427.128 338.661C426.703 336.142 427.04 333.487 428.131 330.758C429.036 328.498 430.936 325.889 432.354 324.959Z" fill="#FAD631"/>
<path d="M355.393 191.538C353.743 191.794 349.918 192.701 346.893 193.552C343.868 194.404 338.716 196.226 335.445 197.601C332.173 198.976 326.998 201.676 323.945 203.601C320.891 205.527 318 207 314.5 211C311 215 307.674 218.68 306 222C304.326 225.32 303 226.5 310.5 235L310.66 235.16C315.104 239.604 319.433 243.934 322.5 245.5C325.44 247.002 331.905 247.784 337.5 249C365 254.977 379.5 271 384.5 277C386.526 279.431 393.497 288.675 397.5 298.5C399.098 302.422 399.667 304 401 308C403 314 403 320 403 321.5C405.5 320.5 408.941 318.153 412.5 315.5C416.82 312.279 419.355 308.645 421 307C424 304 428.526 298.504 430 295C431.475 291.497 433.946 286.17 435 282.051C436.12 277.669 437.641 270.786 437.641 266C437.641 261.159 438.08 256 437.641 250.5C437.202 245 435.746 240 432.91 234.245C429.042 226.397 426.18 222.253 420.348 216.054C416.195 211.639 409.953 206.231 406.479 204.036C403.004 201.842 397.513 198.936 394.277 197.58C391.041 196.224 385.918 194.375 382.893 193.472C379.868 192.568 373.118 191.659 367.893 191.451C362.668 191.242 357.043 191.282 355.393 191.538Z" fill="#FAD631"/>
</svg>
