<svg width="615" height="552" viewBox="0 0 615 552" fill="none" xmlns="http://www.w3.org/2000/svg">
<path d="M224 360.5C221 358.5 216.5 359.5 214 361C211.5 362.5 210 363.5 208.5 365.5C207 367.5 185 400.88 183.5 403.38C182 405.88 182 406.989 182 410.88C182 414.771 182.155 414.227 185 416.88C187.668 419.368 189.889 419.395 193.5 418.88C197.147 418.36 199.5 416.88 201 414.88C202.5 412.88 226 380 227.5 375.5C229 371 229 369.5 228.5 367C228 364.5 227 362.5 224 360.5Z" fill="#36C8EB"/>
<path d="M289 362.12C286 360.12 281.5 361.12 279 362.62C276.5 364.12 275 365.12 273.5 367.12C272 369.12 233 435.62 231.5 438.12C230 440.62 228.5 443.729 228.5 447.62C228.5 451.51 228.655 454.467 231.5 457.12C234.168 459.608 236.889 460.135 240.5 459.62C244.147 459.1 247 456.62 248.5 454.62C250 452.62 291 381.62 292.5 377.12C294 372.62 294 371.12 293.5 368.62C293 366.12 292 364.12 289 362.12Z" fill="#36C8EB"/>
<path d="M417.209 363.12C414.209 361.12 409.709 362.12 407.209 363.62C404.709 365.12 403.209 366.12 401.709 368.12C400.209 370.12 361.209 436.62 359.709 439.12C358.209 441.62 356.709 444.729 356.709 448.62C356.709 452.51 356.863 455.467 359.709 458.12C362.377 460.608 365.097 461.135 368.709 460.62C372.356 460.1 375.209 457.62 376.709 455.62C378.209 453.62 419.209 382.62 420.709 378.12C422.209 373.62 422.209 372.12 421.709 369.62C421.209 367.12 420.209 365.12 417.209 363.12Z" fill="#36C8EB"/>
<path d="M356 362.12C353 360.12 348.5 361.12 346 362.62C343.5 364.12 342 365.12 340.5 367.12C339 369.12 317 402.5 315.5 405C314 407.5 314 408.609 314 412.5C314 416.39 314.155 415.847 317 418.5C319.668 420.988 321.889 421.015 325.5 420.5C329.147 419.98 331.5 418.5 333 416.5C334.5 414.5 358 381.62 359.5 377.12C361 372.62 361 371.12 360.5 368.62C360 366.12 359 364.12 356 362.12Z" fill="#36C8EB"/>
<path fill-rule="evenodd" clip-rule="evenodd" d="M266.728 88.5608C262.082 89.6033 252.216 93.451 244.805 97.11C237.392 100.769 226.838 107.083 221.35 111.14C215.863 115.199 209 121.095 206.099 124.246C203.198 127.395 198.446 133.457 195.54 137.718C192.634 141.977 188.995 147.926 187.453 150.938C185.91 153.951 182.582 162.087 180.054 169.021C177.528 175.955 174.002 184.099 172.221 187.119C170.341 190.307 164.764 195.823 158.927 200.27C153.398 204.484 146.45 210.463 143.489 213.558C140.528 216.652 136.665 221.512 134.903 224.357C133.143 227.203 130.376 233.023 128.755 237.291C126.651 242.829 125.618 248.939 125.148 258.632C124.777 266.27 125.126 275.586 125.946 279.924C126.747 284.166 129.069 291.151 131.104 295.445C133.139 299.739 137.537 306.257 140.879 309.928C144.22 313.6 150.307 318.814 154.405 321.516C158.502 324.218 165.673 327.907 170.338 329.714C178.821 333 178.821 333 302.52 333C426.218 333 426.218 333 436.736 329.457C442.523 327.508 451.019 323.502 455.616 320.554C460.215 317.605 467.576 311.498 471.975 306.983C476.372 302.466 482.197 295.441 484.917 291.369C487.639 287.298 491.51 279.225 493.522 273.428C496.097 266.006 497.544 258.44 498.412 247.845C499.217 238.052 499.195 229.973 498.35 224.699C497.623 220.166 494.809 212.04 491.962 206.25C489.162 200.56 483.906 192.022 480.282 187.277C476.653 182.525 469.619 175.651 464.624 171.972C459.637 168.301 451.24 163.077 445.964 160.364C440.689 157.654 432.916 154.732 428.691 153.872C424.467 153.013 417.92 151.413 414.144 150.316C409.971 149.104 404.948 146.286 401.338 143.129C398.071 140.273 392.266 134.037 388.439 129.272C384.611 124.506 376.912 117.193 371.328 113.02C365.745 108.846 356.769 102.929 351.381 99.87C345.991 96.8112 336.895 92.7875 331.166 90.9303C321.876 87.918 318.281 87.5042 297.962 87.1084C281.257 86.7825 272.922 87.1705 266.728 88.5608Z" fill="#C7C7C7"/>
</svg>
