<svg width="615" height="549" viewBox="0 0 615 549" fill="none" xmlns="http://www.w3.org/2000/svg">
<path fill-rule="evenodd" clip-rule="evenodd" d="M267.086 97.4656C262.887 98.4445 253.971 102.058 247.273 105.493C240.573 108.929 231.036 114.858 226.076 118.668C221.117 122.479 214.914 128.016 212.292 130.975C209.671 133.932 205.377 139.625 202.75 143.625C200.124 147.624 196.835 153.211 195.441 156.04C194.047 158.868 191.039 166.509 188.755 173.02C186.472 179.531 183.286 187.178 181.676 190.014C179.976 193.008 174.936 198.188 169.661 202.363C164.665 206.32 158.385 211.935 155.709 214.841C153.034 217.746 149.542 222.31 147.95 224.982C146.359 227.654 143.858 233.119 142.393 237.127C140.492 242.328 139.559 248.065 139.134 257.166C138.798 264.339 139.114 273.087 139.855 277.161C140.579 281.144 142.677 287.702 144.516 291.735C146.355 295.767 150.331 301.888 153.35 305.335C156.37 308.783 161.871 313.679 165.574 316.216C169.277 318.754 175.758 322.217 179.974 323.914C187.641 327 187.641 327 299.432 327C411.224 327 411.224 327 420.73 323.673C425.959 321.843 433.637 318.081 437.792 315.313C441.949 312.544 448.601 306.809 452.576 302.569C456.55 298.328 461.815 291.731 464.273 287.908C466.732 284.084 470.231 276.504 472.049 271.06C474.376 264.091 475.684 256.987 476.469 247.037C477.196 237.841 477.176 230.255 476.412 225.303C475.756 221.046 473.213 213.415 470.639 207.979C468.109 202.635 463.359 194.618 460.084 190.162C456.804 185.7 450.447 179.245 445.933 175.791C441.426 172.343 433.837 167.438 429.069 164.891C424.302 162.345 417.277 159.602 413.458 158.794C409.641 157.988 403.724 156.485 400.312 155.456C396.54 154.318 392.001 151.671 388.738 148.707C385.786 146.025 380.54 140.169 377.081 135.694C373.622 131.219 366.664 124.352 361.618 120.433C356.572 116.514 348.459 110.958 343.59 108.085C338.719 105.213 330.498 101.435 325.321 99.6906C316.926 96.862 313.677 96.4734 295.314 96.1018C280.216 95.7957 272.683 96.1601 267.086 97.4656Z" fill="#B2B2B2"/>
<path d="M291.5 351L269.5 399.5C269.5 399.5 269.203 403.697 270.5 404.5C272.658 405.836 276.5 405.5 278 405.5C279.5 405.5 303 404.5 303 404.5L282 452.5C282 452.5 282.211 454.748 283 455C284.453 455.464 287.5 454 288.5 452.5C289.5 451 348.5 394 349.5 393C350.5 392 351 390 351 390C351 390 351.051 388.678 350.5 388C350.249 387.691 349 387 349 387L346.5 386.5H332.5H316.5L334 351H291.5Z" fill="#FAD631"/>
</svg>
